<?xml version="1.0" encoding="UTF-8" standalone="no"?>
<svg
   id="Layer_1"
   data-name="Layer 1"
   viewBox="0 0 664 95"
   version="1.1"
   sodipodi:docname="name_logo_trim_no_text.svg"
   inkscape:version="1.1 (c68e22c387, 2021-05-23)"
   width="664"
   height="95"
   xmlns:inkscape="http://www.inkscape.org/namespaces/inkscape"
   xmlns:sodipodi="http://sodipodi.sourceforge.net/DTD/sodipodi-0.dtd"
   xmlns="http://www.w3.org/2000/svg"
   xmlns:svg="http://www.w3.org/2000/svg">
  <sodipodi:namedview
     id="namedview23"
     pagecolor="#ffffff"
     bordercolor="#666666"
     borderopacity="1.0"
     inkscape:pageshadow="2"
     inkscape:pageopacity="0.0"
     inkscape:pagecheckerboard="0"
     showgrid="false"
     inkscape:zoom="2.185241"
     inkscape:cx="336.80496"
     inkscape:cy="79.167469"
     inkscape:window-width="2560"
     inkscape:window-height="1346"
     inkscape:window-x="-11"
     inkscape:window-y="-11"
     inkscape:window-maximized="1"
     inkscape:current-layer="Layer_1"
     height="143px"
     fit-margin-top="0"
     fit-margin-left="0"
     fit-margin-right="0"
     fit-margin-bottom="0" />
  <defs
     id="defs4">
    <style
       id="style2">.cls-1{fill:#231f20;}.cls-2,.cls-4{fill:#ecc97e;}.cls-3{font-size:17.64px;}.cls-3,.cls-5{fill:#8e753e;}.cls-3,.cls-4{font-family:Impossible-1000, &quot;Impossible - 1000&quot;;font-weight:100;}.cls-4{font-size:50.62px;}</style>
  </defs>
  <rect
     class="cls-1"
     width="664"
     height="163"
     id="rect6"
     x="6"
     y="-34"
     style="fill:#231f20;fill-opacity:0" />
  <rect
     class="cls-2"
     x="16.48"
     y="69.459999"
     width="623.47998"
     height="2.3"
     id="rect8" />
  <g
     aria-label="Michael "
     transform="scale(1.0246951,0.97590006)"
     id="text16"
     style="font-weight:100;font-size:64px;font-family:Impossible-1000, 'Impossible - 1000';fill:#ecc97e;stroke-width:1.0247"
     class="cls-4">
    <path
       id="path16001"
       style="font-style:italic;font-weight:600;font-size:74.6667px;font-family:'Titillium Web';-inkscape-font-specification:'Titillium Web Semi-Bold Italic'"
       sodipodi:type="inkscape:offset"
       inkscape:radius="0"
       inkscape:original="M 137.64258 11.757812 L 125.47266 64.621094 L 133.53711 64.621094 L 139.28516 39.683594 L 140.7793 38.115234 C 141.77485 37.0699 143.01839 36.04829 144.51172 35.052734 C 146.05483 34.0074 147.42447 33.486328 148.61914 33.486328 C 149.86359 33.486328 150.75909 33.883243 151.30664 34.679688 C 151.90397 35.476132 152.20312 36.770499 152.20312 38.5625 C 152.20312 40.354501 151.75537 43.042951 150.85938 46.626953 L 146.67773 64.621094 L 154.74219 64.621094 L 158.99805 46.103516 C 160.04339 41.772847 160.56641 38.339449 160.56641 35.800781 C 160.56641 33.212335 159.81951 31.022469 158.32617 29.230469 C 156.88262 27.38869 154.64192 26.466797 151.60547 26.466797 C 149.9628 26.466797 148.22069 26.989822 146.37891 28.035156 C 144.53713 29.08049 143.29359 29.927107 142.64648 30.574219 C 141.99937 31.171552 141.47635 31.694578 141.07812 32.142578 L 145.70703 11.757812 L 137.64258 11.757812 z M 249.26953 11.757812 L 237.02344 64.621094 L 245.16211 64.621094 L 257.33398 11.757812 L 249.26953 11.757812 z M 89.931641 13.027344 L 87.916016 21.763672 L 96.128906 21.763672 L 98.144531 13.027344 L 89.931641 13.027344 z M 32.138672 13.474609 L 20.267578 64.621094 L 28.628906 64.621094 L 38.708984 20.716797 L 39.232422 20.716797 L 40.800781 62.53125 L 48.865234 62.53125 L 69.697266 20.716797 L 70.292969 20.716797 L 60.064453 64.621094 L 68.427734 64.621094 L 80.224609 13.474609 L 66.785156 13.474609 L 46.847656 53.347656 L 45.355469 13.474609 L 32.138672 13.474609 z M 116.58789 26.466797 C 110.31589 26.466797 105.48646 29.004695 102.10156 34.082031 C 98.716674 39.159367 97.023438 45.531484 97.023438 53.197266 C 97.023437 57.079934 98.069488 60.091977 100.16016 62.232422 C 102.3006 64.372868 105.13766 65.443359 108.67188 65.443359 C 112.25588 65.443359 115.81538 64.871453 119.34961 63.726562 L 119.94727 57.603516 L 118.60352 57.826172 C 116.21418 58.224395 113.94904 58.423828 111.80859 58.423828 C 107.47793 58.423828 105.3125 56.085363 105.3125 51.40625 C 105.3125 46.677359 106.25883 42.519549 108.15039 38.935547 C 110.04194 35.301768 112.75484 33.486328 116.28906 33.486328 C 118.4295 33.486328 121.29099 33.783526 124.875 34.380859 L 126.96484 28.408203 L 125.39844 27.884766 C 122.36199 26.938988 119.42522 26.466797 116.58789 26.466797 z M 184.01172 26.466797 C 180.87572 26.466797 178.03671 27.337855 175.49805 29.080078 C 173.00915 30.772523 171.04316 32.988783 169.59961 35.726562 C 168.15605 38.414564 167.03668 41.251613 166.24023 44.238281 C 165.49357 47.224949 165.12109 50.410031 165.12109 53.794922 C 165.12109 57.130035 165.94131 59.918202 167.58398 62.158203 C 169.22665 64.348426 171.76651 65.443359 175.20117 65.443359 C 176.34606 65.443359 177.51432 65.16865 178.70898 64.621094 C 181.69566 63.277093 184.35967 61.062786 186.69922 57.976562 C 186.50011 58.922341 186.12568 61.187483 185.57812 64.771484 L 193.56836 64.472656 L 195.58398 52.824219 L 201.18359 28.632812 L 198.04883 28.109375 C 191.47815 27.014264 186.79927 26.466797 184.01172 26.466797 z M 224.0332 26.541016 C 220.59854 26.541016 217.53566 27.312357 214.84766 28.855469 C 212.15966 30.398581 210.02063 32.464288 208.42773 35.052734 C 205.29173 40.179848 203.72266 46.279208 203.72266 53.347656 C 203.72266 61.41166 207.75435 65.443359 215.81836 65.443359 C 220.44769 65.443359 225.02686 64.745341 229.55664 63.351562 L 230.37891 57.230469 L 228.4375 57.603516 C 224.95305 58.200849 221.41798 58.498047 217.83398 58.498047 C 216.14154 58.498047 214.72302 58.025856 213.57812 57.080078 C 212.43324 56.1343 211.86133 54.839934 211.86133 53.197266 C 211.86133 51.50482 212.01188 50.110736 212.31055 49.015625 L 215.44531 49.015625 C 222.81243 49.015625 228.11405 48.120126 231.34961 46.328125 C 234.63494 44.536124 236.27734 41.351042 236.27734 36.771484 C 236.27734 29.951926 232.19676 26.541016 224.0332 26.541016 z M 86.720703 27.289062 L 78.132812 64.621094 L 86.197266 64.621094 L 94.785156 27.289062 L 86.720703 27.289062 z M 223.6582 33.111328 C 226.74442 33.111328 228.28906 34.356812 228.28906 36.845703 C 228.28906 39.085704 227.418 40.652827 225.67578 41.548828 C 223.93356 42.444828 220.9704 42.894531 216.78906 42.894531 L 213.2793 42.894531 C 215.02152 36.373639 218.48131 33.111328 223.6582 33.111328 z M 183.86133 33.335938 C 185.85243 33.335937 188.54089 33.710365 191.92578 34.457031 L 188.11719 50.509766 L 186.40039 52.525391 C 185.2555 53.869391 183.83698 55.214593 182.14453 56.558594 C 180.45208 57.852816 178.88301 58.498047 177.43945 58.498047 C 176.04567 58.498047 175.00157 58.050297 174.30469 57.154297 C 173.65757 56.208518 173.33398 54.814435 173.33398 52.972656 C 173.33398 46.252653 174.97639 40.82687 178.26172 36.695312 C 180.00395 34.455312 181.87021 33.335938 183.86133 33.335938 z "
       d="m 137.64258,11.757812 -12.16992,52.863282 h 8.06445 l 5.74805,-24.9375 1.49414,-1.56836 c 0.99555,-1.045334 2.23909,-2.066944 3.73242,-3.0625 1.54311,-1.045334 2.91275,-1.566406 4.10742,-1.566406 1.24445,0 2.13995,0.396915 2.6875,1.19336 0.59733,0.796444 0.89648,2.090811 0.89648,3.882812 0,1.792001 -0.44775,4.480451 -1.34374,8.064453 l -4.18165,17.994141 h 8.06446 l 4.25586,-18.517578 c 1.04534,-4.330669 1.56836,-7.764067 1.56836,-10.302735 0,-2.588446 -0.7469,-4.778312 -2.24024,-6.570312 -1.44355,-1.841779 -3.68425,-2.763672 -6.7207,-2.763672 -1.64267,0 -3.38478,0.523025 -5.22656,1.568359 -1.84178,1.045334 -3.08532,1.891951 -3.73243,2.539063 -0.64711,0.597333 -1.17013,1.120359 -1.56836,1.568359 l 4.62891,-20.384766 z m 111.62695,0 -12.24609,52.863282 h 8.13867 l 12.17187,-52.863282 z m -159.337889,1.269532 -2.015625,8.736328 h 8.21289 l 2.015625,-8.736328 z M 32.138672,13.474609 20.267578,64.621094 h 8.361328 L 38.708984,20.716797 h 0.523438 l 1.568359,41.814453 h 8.064453 L 69.697266,20.716797 h 0.595703 L 60.064453,64.621094 h 8.363281 L 80.224609,13.474609 H 66.785156 l -19.9375,39.873047 -1.492187,-39.873047 z m 84.449218,12.992188 c -6.272,0 -11.10143,2.537898 -14.48633,7.615234 -3.384886,5.077336 -5.078122,11.449453 -5.078122,19.115235 -10e-7,3.882668 1.04605,6.894711 3.136722,9.035156 2.14044,2.140446 4.9775,3.210937 8.51172,3.210937 3.584,0 7.1435,-0.571906 10.67773,-1.716797 l 0.59766,-6.123046 -1.34375,0.222656 c -2.38934,0.398223 -4.65448,0.597656 -6.79493,0.597656 -4.33066,0 -6.49609,-2.338465 -6.49609,-7.017578 0,-4.728891 0.94633,-8.886701 2.83789,-12.470703 1.89155,-3.633779 4.60445,-5.449219 8.13867,-5.449219 2.14044,0 5.00193,0.297198 8.58594,0.894531 l 2.08984,-5.972656 -1.5664,-0.523437 c -3.03645,-0.945778 -5.97322,-1.417969 -8.81055,-1.417969 z m 67.42383,0 c -3.136,0 -5.97501,0.871058 -8.51367,2.613281 -2.4889,1.692445 -4.45489,3.908705 -5.89844,6.646484 -1.44356,2.688002 -2.56293,5.525051 -3.35938,8.511719 -0.74666,2.986668 -1.11914,6.17175 -1.11914,9.556641 0,3.335113 0.82022,6.12328 2.46289,8.363281 1.64267,2.190223 4.18253,3.285156 7.61719,3.285156 1.14489,0 2.31315,-0.274709 3.50781,-0.822265 2.98668,-1.344001 5.65069,-3.558308 7.99024,-6.644532 -0.19911,0.945779 -0.57354,3.210921 -1.1211,6.794922 l 7.99024,-0.298828 2.01562,-11.648437 5.59961,-24.191407 -3.13476,-0.523437 c -6.57068,-1.095111 -11.24956,-1.642578 -14.03711,-1.642578 z m 40.02148,0.07422 c -3.43466,0 -6.49754,0.771341 -9.18554,2.314453 -2.688,1.543112 -4.82703,3.608819 -6.41993,6.197265 -3.136,5.127114 -4.70507,11.226474 -4.70507,18.294922 0,8.064004 4.03169,12.095703 12.0957,12.095703 4.62933,0 9.2085,-0.698018 13.73828,-2.091797 l 0.82227,-6.121093 -1.94141,0.373047 c -3.48445,0.597333 -7.01952,0.894531 -10.60352,0.894531 -1.69244,0 -3.11096,-0.472191 -4.25586,-1.417969 -1.14488,-0.945778 -1.71679,-2.240144 -1.71679,-3.882812 0,-1.692446 0.15055,-3.08653 0.44922,-4.181641 h 3.13476 c 7.36712,0 12.66874,-0.895499 15.9043,-2.6875 3.28533,-1.792001 4.92773,-4.977083 4.92773,-9.556641 0,-6.819558 -4.08058,-10.230468 -12.24414,-10.230468 z M 86.720703,27.289062 78.132812,64.621094 h 8.064454 l 8.58789,-37.332032 z M 223.6582,33.111328 c 3.08622,0 4.63086,1.245484 4.63086,3.734375 0,2.240001 -0.87106,3.807124 -2.61328,4.703125 -1.74222,0.896 -4.70538,1.345703 -8.88672,1.345703 h -3.50976 c 1.74222,-6.520892 5.20201,-9.783203 10.3789,-9.783203 z m -39.79687,0.22461 c 1.9911,-10e-7 4.67956,0.374427 8.06445,1.121093 l -3.80859,16.052735 -1.7168,2.015625 c -1.14489,1.344 -2.56341,2.689202 -4.25586,4.033203 -1.69245,1.294222 -3.26152,1.939453 -4.70508,1.939453 -1.39378,0 -2.43788,-0.44775 -3.13476,-1.34375 -0.64712,-0.945779 -0.97071,-2.339862 -0.97071,-4.181641 0,-6.720003 1.64241,-12.145786 4.92774,-16.277344 1.74223,-2.24 3.60849,-3.359374 5.59961,-3.359374 z" />
  </g>
  <polygon
     class="cls-5"
     points="352.7,128.18 327.52,104.39 327.52,77.53 333.37,72 333.37,101.89 346.4,114.2 346.4,54.26 309.91,88.75 272.87,53.75 272.87,114.91 287.04,101.53 287.04,71.82 292.93,77.38 292.93,104.31 267.06,128.74 267.45,40.44 310.13,80.16 352.7,40.44 "
     id="polygon18"
     transform="translate(6,-34)" />
  <polygon
     class="cls-5"
     points="286.93,35.2 286.73,54.92 293.47,61.29 293.47,50.53 309.46,65.65 326.07,49.95 326.07,59.97 332.76,53.65 332.76,35.39 309.95,56.95 "
     id="polygon20"
     transform="translate(6,-34)" />
  <text
     xml:space="preserve"
     style="font-style:italic;font-weight:bold;font-size:40px;line-height:1.25;font-family:sans-serif;-inkscape-font-specification:'sans-serif Bold Italic'"
     x="-117.60717"
     y="157.87733"
     id="text47267"><tspan
       sodipodi:role="line"
       id="tspan47265"
       x="-117.60717"
       y="157.87733" /></text>
  <g
     aria-label="Robinson"
     id="text56617"
     style="font-style:italic;font-weight:bold;font-size:74.6667px;line-height:1.25;-inkscape-font-specification:'sans-serif Bold Italic'">
    <path
       id="path16260"
       style="font-weight:600;font-family:'Titillium Web';-inkscape-font-specification:'Titillium Web Semi-Bold Italic';fill:#ecc97e"
       sodipodi:type="inkscape:offset"
       inkscape:radius="0"
       inkscape:original="M 458.13672 10.150391 L 446.33984 61.595703 L 448.95312 62.119141 C 453.9309 63.214252 458.65867 63.761719 463.13867 63.761719 C 467.22045 63.761719 470.75552 62.416517 473.74219 59.728516 C 476.72885 56.990736 478.91872 53.60622 480.3125 49.574219 C 481.70627 45.542217 482.40234 41.235808 482.40234 36.65625 C 482.40234 28.791357 478.84283 24.859375 471.72461 24.859375 C 470.23128 24.859375 468.48916 25.35796 466.49805 26.353516 C 464.50693 27.299294 462.93982 28.343391 461.79492 29.488281 L 466.27539 10.150391 L 458.13672 10.150391 z M 496.36523 11.419922 L 494.34961 20.15625 L 502.5625 20.15625 L 504.57812 11.419922 L 496.36523 11.419922 z M 379.88477 11.867188 L 368.01367 63.013672 L 376.37695 63.013672 L 380.4082 45.46875 L 389.81641 45.46875 L 393.99805 63.013672 L 402.28516 63.013672 L 397.50781 44.347656 C 400.89271 43.202767 403.75419 41.0129 406.09375 37.777344 C 408.48308 34.492008 409.67773 30.435869 409.67773 25.607422 C 409.67773 20.729197 408.48308 17.21857 406.09375 15.078125 C 403.70441 12.93768 400.02075 11.867188 395.04297 11.867188 L 379.88477 11.867188 z M 386.53125 19.035156 L 394.44531 19.035156 C 396.88443 19.035156 398.6021 19.558182 399.59766 20.603516 C 400.59322 21.599072 401.0918 23.615898 401.0918 26.652344 C 401.0918 29.639012 400.14547 32.325509 398.25391 34.714844 C 396.36235 37.104178 393.82445 38.298828 390.63867 38.298828 L 382.05078 38.298828 L 386.53125 19.035156 z M 527.65039 24.859375 C 526.00772 24.859375 524.24117 25.406841 522.34961 26.501953 C 520.50783 27.547286 519.26234 28.393904 518.61523 29.041016 C 517.96812 29.63835 517.44705 30.161375 517.04883 30.609375 L 517.86914 25.681641 L 510.10352 25.681641 L 501.51758 63.013672 L 509.58203 63.013672 L 515.33008 38.076172 L 516.75 36.507812 C 517.74555 35.462479 518.98908 34.442822 520.48242 33.447266 C 521.97576 32.401932 523.3454 31.878906 524.58984 31.878906 C 525.88407 31.878906 526.80401 32.275821 527.35156 33.072266 C 527.9489 33.868711 528.24805 35.014479 528.24805 36.507812 C 528.24805 38.001147 527.8003 40.838196 526.9043 45.019531 L 522.72266 63.013672 L 530.78711 63.013672 L 535.04297 44.421875 C 536.0883 40.24054 536.61133 36.856023 536.61133 34.267578 C 536.61133 31.629354 535.86443 29.415048 534.37109 27.623047 C 532.92754 25.781268 530.68684 24.859375 527.65039 24.859375 z M 634.57422 24.859375 C 632.93155 24.859375 631.16304 25.406841 629.27148 26.501953 C 627.4297 27.547286 626.18618 28.393904 625.53906 29.041016 C 624.89196 29.63835 624.36893 30.161375 623.9707 30.609375 L 624.79297 25.681641 L 617.02734 25.681641 L 608.43945 63.013672 L 616.50391 63.013672 L 622.25391 38.076172 L 623.67188 36.507812 C 624.66743 35.462479 625.91292 34.442822 627.40625 33.447266 C 628.89958 32.401932 630.26727 31.878906 631.51172 31.878906 C 632.80594 31.878906 633.72783 32.275821 634.27539 33.072266 C 634.87272 33.868711 635.16992 35.014479 635.16992 36.507812 C 635.16992 38.001147 634.72217 40.838196 633.82617 45.019531 L 629.64453 63.013672 L 637.70898 63.013672 L 641.96484 44.421875 C 643.01018 40.24054 643.5332 36.856023 643.5332 34.267578 C 643.5332 31.629354 642.7863 29.415048 641.29297 27.623047 C 639.84941 25.781268 637.61067 24.859375 634.57422 24.859375 z M 429.83789 24.933594 C 426.15433 24.933594 422.84314 26.203519 419.90625 28.742188 C 416.96936 31.280855 414.75505 34.492331 413.26172 38.375 C 411.76839 42.207891 411.02148 46.264031 411.02148 50.544922 C 411.02148 59.405371 415.62704 63.835937 424.83594 63.835938 C 428.76838 63.835938 432.20179 62.566012 435.13867 60.027344 C 438.12534 57.488676 440.3152 54.328035 441.70898 50.544922 C 443.10276 46.712031 443.80078 42.655891 443.80078 38.375 C 443.80078 29.414996 439.14634 24.933594 429.83789 24.933594 z M 558.48828 24.933594 C 554.20739 24.933594 550.599 26.203519 547.66211 28.742188 C 544.72522 31.280855 543.25586 34.716206 543.25586 39.046875 C 543.25586 41.485987 544.07804 43.352262 545.7207 44.646484 C 547.36338 45.89093 549.60212 46.886146 552.43945 47.632812 C 555.32657 48.37948 557.1684 48.977781 557.96484 49.425781 C 558.76129 49.873781 559.16016 50.569846 559.16016 51.515625 C 559.16016 55.149404 556.49615 56.966797 551.16992 56.966797 C 548.38237 56.966797 544.62538 56.519048 539.89648 55.623047 L 538.40234 61.669922 L 540.04492 62.193359 C 543.4796 63.288471 547.08798 63.835938 550.87109 63.835938 C 555.79909 63.835937 559.78191 62.665729 562.81836 60.326172 C 565.85481 57.936837 567.37305 54.477046 567.37305 49.947266 C 567.37305 47.159709 566.47755 45.193717 564.68555 44.048828 C 563.68999 43.401716 562.69477 42.878691 561.69922 42.480469 C 560.70366 42.082246 559.13458 41.585615 556.99414 40.988281 C 554.85369 40.34117 553.38629 39.767309 552.58984 39.269531 C 551.7934 38.771753 551.39453 37.900695 551.39453 36.65625 C 551.39453 35.411805 551.942 34.292432 553.03711 33.296875 C 554.182 32.301319 555.72468 31.804688 557.66602 31.804688 C 560.90157 31.804688 564.9841 32.177161 569.91211 32.923828 L 571.40625 26.875 L 569.76367 26.427734 C 566.37879 25.432178 562.61984 24.933594 558.48828 24.933594 z M 592.16211 24.933594 C 588.47855 24.933594 585.16931 26.203519 582.23242 28.742188 C 579.29553 31.280855 577.07927 34.492331 575.58594 38.375 C 574.0926 42.207891 573.34766 46.264031 573.34766 50.544922 C 573.34766 59.405371 577.95126 63.835938 587.16016 63.835938 C 591.0926 63.835937 594.52795 62.566012 597.46484 60.027344 C 600.45151 57.488676 602.64138 54.328035 604.03516 50.544922 C 605.42893 46.712031 606.125 42.655891 606.125 38.375 C 606.125 29.414996 601.47056 24.933594 592.16211 24.933594 z M 493.1543 25.681641 L 484.56836 63.013672 L 492.63281 63.013672 L 501.21875 25.681641 L 493.1543 25.681641 z M 429.83789 31.804688 C 431.77922 31.804688 433.24663 32.376594 434.24219 33.521484 C 435.23775 34.666374 435.73633 36.257938 435.73633 38.298828 C 435.73633 43.177052 434.71667 47.507902 432.67578 51.291016 C 430.68467 55.074128 428.07149 56.966797 424.83594 56.966797 C 421.00304 56.966797 419.08594 54.850254 419.08594 50.619141 C 419.08594 45.740917 420.08115 41.385626 422.07227 37.552734 C 424.06338 33.719844 426.65211 31.804688 429.83789 31.804688 z M 469.85938 31.804688 C 471.40249 31.804688 472.49742 32.32576 473.14453 33.371094 C 473.79164 34.36665 474.11523 35.736292 474.11523 37.478516 C 474.11523 40.962962 473.3175 44.894944 471.72461 49.275391 C 470.92816 51.415836 469.75991 53.233229 468.2168 54.726562 C 466.72346 56.170119 464.93051 56.892578 462.83984 56.892578 C 460.79895 56.892578 458.40965 56.617868 455.67188 56.070312 L 460.15234 36.65625 L 461.57031 35.388672 C 462.51609 34.592227 463.76157 33.794492 465.30469 32.998047 C 466.8478 32.201602 468.36604 31.804688 469.85938 31.804688 z M 592.16211 31.804688 C 594.10344 31.804688 595.5728 32.376594 596.56836 33.521484 C 597.56391 34.666374 598.06055 36.257938 598.06055 38.298828 C 598.06055 43.177052 597.04089 47.507902 595 51.291016 C 593.00889 55.074128 590.39572 56.966797 587.16016 56.966797 C 583.32726 56.966797 581.41016 54.850254 581.41016 50.619141 C 581.41016 45.740917 582.40537 41.385626 584.39648 37.552734 C 586.3876 33.719844 588.97633 31.804688 592.16211 31.804688 z "
       d="m 458.13672,10.150391 -11.79688,51.445312 2.61328,0.523438 c 4.97778,1.095111 9.70555,1.642578 14.18555,1.642578 4.08178,0 7.61685,-1.345202 10.60352,-4.033203 2.98666,-2.73778 5.17653,-6.122296 6.57031,-10.154297 1.39377,-4.032002 2.08984,-8.338411 2.08984,-12.917969 0,-7.864893 -3.55951,-11.796875 -10.67773,-11.796875 -1.49333,0 -3.23545,0.498585 -5.22656,1.494141 -1.99112,0.945778 -3.55823,1.989875 -4.70313,3.134765 l 4.48047,-19.33789 z m 38.22851,1.269531 -2.01562,8.736328 h 8.21289 l 2.01562,-8.736328 z m -116.48046,0.447266 -11.8711,51.146484 h 8.36328 L 380.4082,45.46875 h 9.40821 l 4.18164,17.544922 h 8.28711 l -4.77735,-18.666016 c 3.3849,-1.144889 6.24638,-3.334756 8.58594,-6.570312 2.38933,-3.285336 3.58398,-7.341475 3.58398,-12.169922 0,-4.878225 -1.19465,-8.388852 -3.58398,-10.529297 -2.38934,-2.140445 -6.073,-3.210937 -11.05078,-3.210937 z m 6.64648,7.167968 h 7.91406 c 2.43912,0 4.15679,0.523026 5.15235,1.56836 0.99556,0.995556 1.49414,3.012382 1.49414,6.048828 0,2.986668 -0.94633,5.673165 -2.83789,8.0625 -1.89156,2.389334 -4.42946,3.583984 -7.61524,3.583984 h -8.58789 z m 141.11914,5.824219 c -1.64267,0 -3.40922,0.547466 -5.30078,1.642578 -1.84178,1.045333 -3.08727,1.891951 -3.73438,2.539063 -0.64711,0.597334 -1.16818,1.120359 -1.5664,1.568359 l 0.82031,-4.927734 h -7.76562 l -8.58594,37.332031 h 8.06445 l 5.74805,-24.9375 1.41992,-1.56836 c 0.99555,-1.045333 2.23908,-2.06499 3.73242,-3.060546 1.49334,-1.045334 2.86298,-1.56836 4.10742,-1.56836 1.29423,0 2.21417,0.396915 2.76172,1.19336 0.59734,0.796445 0.89649,1.942213 0.89649,3.435546 0,1.493335 -0.44775,4.330384 -1.34375,8.511719 l -4.18164,17.994141 h 8.06445 l 4.25586,-18.591797 c 1.04533,-4.181335 1.56836,-7.565852 1.56836,-10.154297 0,-2.638224 -0.7469,-4.85253 -2.24024,-6.644531 -1.44355,-1.841779 -3.68425,-2.763672 -6.7207,-2.763672 z m 106.92383,0 c -1.64267,0 -3.41118,0.547466 -5.30274,1.642578 -1.84178,1.045333 -3.0853,1.891951 -3.73242,2.539063 -0.6471,0.597334 -1.17013,1.120359 -1.56836,1.568359 l 0.82227,-4.927734 h -7.76563 l -8.58789,37.332031 h 8.06446 l 5.75,-24.9375 1.41797,-1.56836 c 0.99555,-1.045333 2.24104,-2.06499 3.73437,-3.060546 1.49333,-1.045334 2.86102,-1.56836 4.10547,-1.56836 1.29422,0 2.21611,0.396915 2.76367,1.19336 0.59733,0.796445 0.89453,1.942213 0.89453,3.435546 0,1.493335 -0.44775,4.330384 -1.34375,8.511719 l -4.18164,17.994141 h 8.06445 l 4.25586,-18.591797 c 1.04534,-4.181335 1.56836,-7.565852 1.56836,-10.154297 0,-2.638224 -0.7469,-4.85253 -2.24023,-6.644531 -1.44356,-1.841779 -3.6823,-2.763672 -6.71875,-2.763672 z m -204.73633,0.07422 c -3.68356,0 -6.99475,1.269925 -9.93164,3.808594 -2.93689,2.538667 -5.1512,5.750143 -6.64453,9.632812 -1.49333,3.832891 -2.24024,7.889031 -2.24024,12.169922 0,8.860449 4.60556,13.291015 13.81446,13.291016 3.93244,0 7.36585,-1.269926 10.30273,-3.808594 2.98667,-2.538668 5.17653,-5.699309 6.57031,-9.482422 1.39378,-3.832891 2.0918,-7.889031 2.0918,-12.169922 0,-8.960004 -4.65444,-13.441406 -13.96289,-13.441406 z m 128.65039,0 c -4.28089,0 -7.88928,1.269925 -10.82617,3.808594 -2.93689,2.538667 -4.40625,5.974018 -4.40625,10.304687 0,2.439112 0.82218,4.305387 2.46484,5.599609 1.64268,1.244446 3.88142,2.239662 6.71875,2.986328 2.88712,0.746668 4.72895,1.344969 5.52539,1.792969 0.79645,0.448 1.19532,1.144065 1.19532,2.089844 0,3.633779 -2.66401,5.451172 -7.99024,5.451172 -2.78755,0 -6.54454,-0.447749 -11.27344,-1.34375 l -1.49414,6.046875 1.64258,0.523437 c 3.43468,1.095112 7.04306,1.642579 10.82617,1.642579 4.928,-10e-7 8.91082,-1.170209 11.94727,-3.509766 3.03645,-2.389335 4.55469,-5.849126 4.55469,-10.378906 0,-2.787557 -0.8955,-4.753549 -2.6875,-5.898438 -0.99556,-0.647112 -1.99078,-1.170137 -2.98633,-1.568359 -0.99556,-0.398223 -2.56464,-0.894854 -4.70508,-1.492188 -2.14045,-0.647111 -3.60785,-1.220972 -4.4043,-1.71875 -0.79644,-0.497778 -1.19531,-1.368836 -1.19531,-2.613281 0,-1.244445 0.54747,-2.363818 1.64258,-3.359375 1.14489,-0.995556 2.68757,-1.492187 4.62891,-1.492187 3.23555,0 7.31808,0.372473 12.24609,1.11914 l 1.49414,-6.048828 -1.64258,-0.447266 c -3.38488,-0.995556 -7.14383,-1.49414 -11.27539,-1.49414 z m 33.67383,0 c -3.68356,0 -6.9928,1.269925 -9.92969,3.808594 -2.93689,2.538667 -5.15315,5.750143 -6.64648,9.632812 -1.49334,3.832891 -2.23828,7.889031 -2.23828,12.169922 0,8.860449 4.6036,13.291016 13.8125,13.291016 3.93244,-10e-7 7.36779,-1.269926 10.30468,-3.808594 2.98667,-2.538668 5.17654,-5.699309 6.57032,-9.482422 1.39377,-3.832891 2.08984,-7.889031 2.08984,-12.169922 0,-8.960004 -4.65444,-13.441406 -13.96289,-13.441406 z m -99.00781,0.748047 -8.58594,37.332031 h 8.06445 l 8.58594,-37.332031 z m -63.31641,6.123047 c 1.94133,0 3.40874,0.571906 4.4043,1.716796 0.99556,1.14489 1.49414,2.736454 1.49414,4.777344 0,4.878224 -1.01966,9.209074 -3.06055,12.992188 -1.99111,3.783112 -4.60429,5.675781 -7.83984,5.675781 -3.8329,0 -5.75,-2.116543 -5.75,-6.347656 0,-4.878224 0.99521,-9.233515 2.98633,-13.066407 1.99111,-3.83289 4.57984,-5.748046 7.76562,-5.748046 z m 40.02149,0 c 1.54311,0 2.63804,0.521072 3.28515,1.566406 0.64711,0.995556 0.9707,2.365198 0.9707,4.107422 0,3.484446 -0.79773,7.416428 -2.39062,11.796875 -0.79645,2.140445 -1.9647,3.957838 -3.50781,5.451171 -1.49334,1.443557 -3.28629,2.166016 -5.37696,2.166016 -2.04089,0 -4.43019,-0.27471 -7.16796,-0.822266 l 4.48046,-19.414062 1.41797,-1.267578 c 0.94578,-0.796445 2.19126,-1.59418 3.73438,-2.390625 1.54311,-0.796445 3.06135,-1.193359 4.55469,-1.193359 z m 122.30273,0 c 1.94133,0 3.41069,0.571906 4.40625,1.716796 0.99555,1.14489 1.49219,2.736454 1.49219,4.777344 0,4.878224 -1.01966,9.209074 -3.06055,12.992188 -1.99111,3.783112 -4.60428,5.675781 -7.83984,5.675781 -3.8329,0 -5.75,-2.116543 -5.75,-6.347656 0,-4.878224 0.99521,-9.233515 2.98632,-13.066407 1.99112,-3.83289 4.57985,-5.748046 7.76563,-5.748046 z" />
  </g>
</svg>
